<svg width="25" height="25" viewBox="0 0 25 25" fill="none" xmlns="http://www.w3.org/2000/svg">
<path d="M23.7435 11.8945C23.0194 11.0032 22.0333 10.3517 20.9388 10.0349C20.8129 6.65286 18.0222 3.94028 14.6099 3.94028C13.1654 3.94028 11.7523 4.4395 10.6311 5.346C9.6682 6.12454 8.95159 7.17476 8.57663 8.34404C8.07214 8.1423 7.53044 8.03714 6.98425 8.03714C4.62933 8.03714 2.71153 9.9446 2.69494 12.2957C1.07072 13.0324 0 14.6731 0 16.4741C0 19.0026 2.05714 21.0598 4.58569 21.0598H19.3774C22.4778 21.0598 25.0001 18.5375 25 15.4372C25 14.1499 24.5538 12.8917 23.7435 11.8945ZM19.3774 20.1834H4.58569C2.54035 20.1834 0.876346 18.5194 0.876346 16.4741C0.876346 14.9306 1.84839 13.5328 3.29506 12.9957C3.47688 12.9282 3.59267 12.7493 3.57982 12.5559C3.57392 12.467 3.57117 12.3941 3.57117 12.3265C3.57117 10.4445 5.10226 8.91343 6.98425 8.91343C7.56585 8.91343 8.14079 9.06322 8.64697 9.34658C8.76749 9.41411 8.91291 9.42077 9.0391 9.36457C9.16536 9.30837 9.25772 9.19596 9.28828 9.06118C9.55743 7.87466 10.23 6.79734 11.1821 6.02756C12.1479 5.24668 13.3653 4.81668 14.6099 4.81668C17.6189 4.81668 20.0669 7.26467 20.0669 10.2737C20.0669 10.2996 20.0664 10.3255 20.066 10.3513L20.0657 10.3686C20.0622 10.5767 20.2057 10.7587 20.409 10.8037C21.4464 11.0335 22.389 11.6172 23.0633 12.4471C23.7471 13.2886 24.1237 14.3506 24.1237 15.4372C24.1237 18.0542 21.9945 20.1834 19.3774 20.1834Z" fill="#365467"/>
</svg>
