<?xml version="1.0" encoding="iso-8859-1"?>
<!-- Generator: Adobe Illustrator 19.0.0, SVG Export Plug-In . SVG Version: 6.00 Build 0)  -->
<svg version="1.1" id="Capa_1" xmlns="http://www.w3.org/2000/svg" xmlns:xlink="http://www.w3.org/1999/xlink" x="0px" y="0px"
	 viewBox="0 0 478.08 478.08" style="enable-background:new 0 0 478.08 478.08;" xml:space="preserve">
<g>
	<g>
		<g>
			<path d="M247.04,110.488v-8.408c0-4.418-3.582-8-8-8s-8,3.582-8,8v8.408c-89.475,4.294-159.856,78.014-160,167.592
				c0,4.418,3.582,8,8,8s8-3.582,8-8c0-17.673,14.327-32,32-32s32,14.327,32,32c0,4.418,3.582,8,8,8s8-3.582,8-8
				c0-17.673,14.327-32,32-32s32,14.327,32,32v160c0,22.091,17.909,40,40,40c22.091,0,40-17.909,40-40v-32c0-4.418-3.582-8-8-8
				s-8,3.582-8,8v32c0,13.255-10.745,24-24,24s-24-10.745-24-24v-160c0-17.673,14.327-32,32-32c17.673,0,32,14.327,32,32
				c0,4.418,3.582,8,8,8s8-3.582,8-8c0-17.673,14.327-32,32-32c17.673,0,32,14.327,32,32c0,4.418,3.582,8,8,8s8-3.582,8-8
				C406.896,188.502,336.515,114.782,247.04,110.488z M359.04,230.08c-16.094,0.006-31.113,8.078-40,21.496
				c-14.654-22.091-44.442-28.121-66.533-13.467c-5.343,3.544-9.923,8.124-13.467,13.467
				c-14.654-22.091-44.442-28.121-66.533-13.467c-5.343,3.544-9.923,8.124-13.467,13.467c-14.607-22.085-44.352-28.147-66.437-13.54
				c-0.086,0.057-0.173,0.115-0.259,0.172c21.983-81.018,105.481-128.876,186.499-106.893
				c52.079,14.131,92.762,54.814,106.893,106.893C377.847,232.897,368.55,230.067,359.04,230.08z"/>
			<path d="M239.04,70.08c13.255,0,24-10.745,24-24c0-10.224-12.176-28.96-17.416-36.544L239.04,0l-6.584,9.536
				c-5.24,7.584-17.416,26.32-17.416,36.544C215.04,59.335,225.785,70.08,239.04,70.08z M239.04,28.912
				c3.563,5.26,6.264,11.056,8,17.168c0,4.418-3.582,8-8,8s-8-3.582-8-8C232.775,39.968,235.476,34.172,239.04,28.912z"/>
			<path d="M335.04,102.08c13.255,0,24-10.745,24-24c0-10.224-12.176-28.96-17.416-36.544L335.04,32l-6.584,9.536
				c-5.24,7.584-17.416,26.32-17.416,36.544C311.04,91.335,321.785,102.08,335.04,102.08z M335.04,60.912
				c3.563,5.26,6.264,11.056,8,17.168c0,4.418-3.582,8-8,8s-8-3.582-8-8C328.775,71.968,331.476,66.172,335.04,60.912z"/>
			<path d="M143.04,102.08c13.255,0,24-10.745,24-24c0-10.224-12.176-28.96-17.416-36.544L143.04,32l-6.584,9.536
				c-5.24,7.584-17.416,26.32-17.416,36.544C119.04,91.335,129.785,102.08,143.04,102.08z M143.04,60.912
				c3.566,5.259,6.266,11.055,8,17.168c0,4.418-3.582,8-8,8s-8-3.582-8-8C136.772,71.967,139.473,66.171,143.04,60.912z"/>
		</g>
	</g>
</g>
<g>
</g>
<g>
</g>
<g>
</g>
<g>
</g>
<g>
</g>
<g>
</g>
<g>
</g>
<g>
</g>
<g>
</g>
<g>
</g>
<g>
</g>
<g>
</g>
<g>
</g>
<g>
</g>
<g>
</g>
</svg>
