<svg width="26" height="25" viewBox="0 0 26 25" fill="none" xmlns="http://www.w3.org/2000/svg">
<path d="M11.356 6.15048L9.9245 4.75893C9.7557 4.56492 9.45534 4.53926 9.25357 4.70156C9.05179 4.86386 9.0251 5.15268 9.1939 5.34669C9.21078 5.36607 9.22929 5.38412 9.24931 5.4006L10.6808 6.79215C10.8806 6.95671 11.1813 6.93438 11.3524 6.74232C11.5038 6.5724 11.5054 6.32209 11.356 6.15048Z" fill="#365467"/>
<path d="M23.4932 4.83095C23.3244 4.63694 23.024 4.61128 22.8223 4.77358C22.8021 4.78981 22.7833 4.80762 22.7662 4.82687L21.319 6.20331C21.1172 6.36561 21.0905 6.65443 21.2593 6.84844C21.4281 7.04245 21.7285 7.06812 21.9303 6.90581C21.9504 6.88958 21.9692 6.87178 21.9863 6.85253L23.4335 5.47608C23.6352 5.31378 23.662 5.02497 23.4932 4.83095Z" fill="#365467"/>
<path d="M14.8683 4.54427C14.8653 4.53093 14.8618 4.51779 14.8576 4.50476L14.3342 2.61247C14.2798 2.36643 14.0282 2.20941 13.7723 2.26169C13.5165 2.31397 13.3532 2.55591 13.4075 2.80195C13.4105 2.81529 13.414 2.82843 13.4182 2.84146L13.9416 4.73375C13.996 4.97979 14.2476 5.13681 14.5035 5.08453C14.7594 5.03225 14.9227 4.79031 14.8683 4.54427Z" fill="#365467"/>
<path d="M21.3765 14.2883C21.2876 14.2028 21.1951 14.1189 21.0991 14.0367L21.1776 13.9008C21.2751 13.7286 21.3624 13.5514 21.4393 13.3699C22.5541 10.6928 21.2008 7.65361 18.4166 6.58171C18.4114 6.57969 18.4062 6.57768 18.401 6.57573C15.884 5.61103 13.0125 6.57724 11.6701 8.84045C8.389 7.95935 4.98631 9.80257 4.0699 12.9575C3.91739 13.4825 3.84091 14.0251 3.84261 14.5702C3.84261 14.6457 3.84261 14.7245 3.84261 14.8067C1.56471 14.962 -0.151003 16.8635 0.0105321 19.0538C0.163169 21.1239 1.94607 22.7329 4.10431 22.7483H4.1174H17.7258C20.5717 22.753 22.8827 20.5386 22.8877 17.8022C22.89 16.4843 22.3462 15.2198 21.3765 14.2883ZM14.7398 7.42626C15.8011 7.02043 16.9838 7.02043 18.0451 7.42626C20.3459 8.30893 21.4689 10.8163 20.5548 13.0302C20.4886 13.1826 20.4135 13.3313 20.3297 13.4756V13.5158C19.0159 12.7814 17.4322 12.6415 16.0012 13.1333C15.7371 12.1201 15.199 11.1921 14.4415 10.4434C14.9707 9.4986 16.1497 9.08183 17.1893 9.47205C17.4378 9.55062 17.7055 9.42059 17.7873 9.18166C17.8622 8.96249 17.7549 8.724 17.5374 8.62656C16.1258 8.08271 14.5119 8.58938 13.7061 9.82937C13.3489 9.57119 12.9638 9.35095 12.5572 9.1726C13.0683 8.37813 13.8344 7.76515 14.7398 7.42626ZM18.72 21.7217C18.396 21.7961 18.0641 21.8333 17.7311 21.8324H4.12263C2.36368 21.8309 0.939045 20.4586 0.940615 18.7673C0.9414 17.9567 1.27631 17.1795 1.87201 16.606L1.86677 16.6085C2.46325 16.034 3.27315 15.7116 4.1174 15.7127H4.23254H4.33461C4.59559 15.7298 4.82163 15.5402 4.83936 15.2892C4.84218 15.2499 4.83962 15.2103 4.83184 15.1716C4.82137 15.0844 4.81267 14.9896 4.80567 14.8873C4.80567 14.7917 4.80567 14.686 4.80567 14.5677C4.84447 11.7968 7.212 9.58082 10.0938 9.61812C12.6259 9.6509 14.7681 11.427 15.1742 13.8304C15.2117 14.0794 15.452 14.252 15.7109 14.2159C15.7609 14.209 15.8095 14.1944 15.8547 14.1727C16.1444 14.0333 16.45 13.9269 16.7654 13.8556C19.0244 13.3366 21.2933 14.6768 21.8331 16.849C22.3728 19.0211 20.979 21.2027 18.72 21.7217Z" fill="#365467"/>
<path d="M25.9789 9.14667C25.9066 8.9214 25.6675 8.78639 25.4277 8.8354L23.4597 9.33867C23.207 9.40158 23.0549 9.64912 23.1195 9.89227C23.1847 10.1358 23.4429 10.2825 23.6963 10.2198C23.6968 10.2196 23.6974 10.2195 23.6978 10.2194L25.6658 9.71612C25.9159 9.64201 26.056 9.38705 25.9789 9.14667Z" fill="#365467"/>
<path d="M25.6448 13.5989L23.6821 13.083C23.4299 13.0135 23.1669 13.1538 23.0946 13.3963C23.0223 13.6388 23.1682 13.8917 23.4204 13.9612L25.3831 14.4771C25.6353 14.5466 25.8984 14.4063 25.9707 14.1638C26.0429 13.9213 25.897 13.6684 25.6448 13.5989Z" fill="#365467"/>
<path d="M18.9572 2.30674C18.705 2.23722 18.4419 2.37751 18.3696 2.62002L17.8332 4.50728C17.7583 4.74829 17.9008 5.00206 18.1515 5.07403C18.157 5.0756 18.1625 5.07711 18.1681 5.0785C18.4191 5.14952 18.6824 5.0115 18.7563 4.77018C18.7575 4.76647 18.7585 4.76269 18.7596 4.75892L19.283 2.87166C19.3552 2.62915 19.2094 2.37625 18.9572 2.30674Z" fill="#365467"/>
</svg>
