<svg width="25" height="25" viewBox="0 0 25 25" fill="none" xmlns="http://www.w3.org/2000/svg">
<g clip-path="url(#clip0)">
<path d="M23.2936 6.26696C23.1677 6.05039 22.89 5.97691 22.6734 6.10283L20.4583 7.38328C20.2418 7.50919 20.1683 7.78689 20.2942 8.00345C20.4201 8.22001 20.6978 8.2935 20.9144 8.16758L23.1295 6.88713C23.346 6.76116 23.4195 6.48352 23.2936 6.26696Z" fill="#365467"/>
<path d="M23.1295 18.1154L20.9144 16.835C20.6978 16.7091 20.4201 16.7825 20.2942 16.9991C20.1683 17.2157 20.2418 17.4934 20.4583 17.6193L22.6734 18.8997C22.89 19.0256 23.1677 18.9522 23.2936 18.7356C23.4195 18.519 23.346 18.2413 23.1295 18.1154Z" fill="#365467"/>
<path d="M12.5351 21.4632C12.2839 21.4445 12.0652 21.633 12.0465 21.8842C12.0448 21.9067 12.0448 21.9293 12.0465 21.9518V24.5101C12.0278 24.7613 12.2163 24.98 12.4675 24.9987C12.7187 25.0174 12.9374 24.8289 12.9561 24.5777C12.9578 24.5552 12.9578 24.5326 12.9561 24.5101V21.9518C12.9747 21.7006 12.7862 21.4819 12.5351 21.4632Z" fill="#365467"/>
<path d="M4.54171 7.38328L2.32661 6.10283C2.11005 5.97691 1.83235 6.05039 1.70644 6.26696C1.58052 6.48352 1.654 6.76122 1.87056 6.88713L4.08566 8.16758C4.30222 8.2935 4.57993 8.22001 4.70584 8.00345C4.83176 7.78683 4.75827 7.50919 4.54171 7.38328Z" fill="#365467"/>
<path d="M12.5351 0.000908979C12.2839 -0.017759 12.0652 0.170737 12.0465 0.421941C12.0448 0.44443 12.0448 0.466982 12.0465 0.489471V3.04786C12.0479 3.29775 12.2502 3.50003 12.5 3.50141C12.7519 3.50141 12.9561 3.29725 12.9561 3.04536V0.489534C12.9747 0.238331 12.7862 0.019577 12.5351 0.000908979Z" fill="#365467"/>
<path d="M8.16504 4.08563L6.8871 1.87053C6.76119 1.65397 6.48349 1.58049 6.26692 1.7064C6.05036 1.83232 5.97688 2.11002 6.1028 2.32658L7.38074 4.54168C7.50665 4.75824 7.78435 4.83172 8.00091 4.70581C8.21747 4.57983 8.29096 4.30219 8.16504 4.08563Z" fill="#365467"/>
<path d="M12.5675 8.45317C12.5451 8.45148 12.5225 8.45148 12.5 8.45317C10.265 8.45317 8.45319 10.265 8.45319 12.5C8.45319 12.7519 8.65734 12.956 8.90924 12.956C9.16013 12.9547 9.36278 12.7509 9.36278 12.5C9.3614 10.7688 10.7638 9.36415 12.495 9.36277C12.4967 9.36277 12.4983 9.36277 12.5 9.36277C12.7512 9.38144 12.9699 9.19294 12.9886 8.94174C13.0072 8.69053 12.8187 8.47178 12.5675 8.45317Z" fill="#365467"/>
<path d="M24.9312 12.4649C24.9144 12.2397 24.7354 12.0606 24.5101 12.0439H21.9518C21.7005 12.0252 21.4819 12.2137 21.4632 12.4649C21.4445 12.7161 21.633 12.9348 21.8842 12.9535C21.9067 12.9552 21.9293 12.9552 21.9518 12.9535H24.5102C24.7613 12.9349 24.9498 12.7161 24.9312 12.4649Z" fill="#365467"/>
<path d="M3.11579 12.0465C3.0933 12.0448 3.07075 12.0448 3.04826 12.0465H0.489873C0.23867 12.0651 0.0501731 12.2839 0.0688411 12.535C0.0855671 12.7602 0.264604 12.9393 0.489873 12.9561H3.04826C3.29947 12.9747 3.51816 12.7862 3.53683 12.535C3.55549 12.2838 3.367 12.0651 3.11579 12.0465Z" fill="#365467"/>
<path d="M12.5018 5.80716C8.80545 5.80666 5.80855 8.80274 5.80798 12.4991C5.80773 14.2749 6.51323 15.978 7.76906 17.2335C9.02251 18.49 10.7251 19.1952 12.5 19.193C16.1963 19.1935 19.1933 16.1974 19.1938 12.501C19.1943 8.80462 16.1982 5.80766 12.5018 5.80716ZM16.5894 16.597C14.3309 18.8555 10.6691 18.8555 8.41054 16.597C7.3241 15.5106 6.71463 14.0365 6.71664 12.5001C6.71445 10.9658 7.3241 9.49396 8.41054 8.41065V8.41817C10.6691 6.15966 14.3309 6.15966 16.5894 8.41817C18.8479 10.6767 18.8479 14.3385 16.5894 16.597Z" fill="#365467"/>
<path d="M18.8984 22.6755C18.898 22.6748 18.8976 22.6741 18.8972 22.6735L17.6167 20.4584C17.4908 20.2418 17.2131 20.1683 16.9965 20.2942C16.78 20.4201 16.7065 20.6979 16.8324 20.9144L18.1129 23.1295C18.2383 23.3458 18.5152 23.4198 18.7318 23.2949C18.9488 23.1698 19.0235 22.8925 18.8984 22.6755Z" fill="#365467"/>
<path d="M18.7482 1.7064C18.5316 1.58049 18.2539 1.65397 18.128 1.87053L16.8475 4.08563C16.7208 4.30169 16.7932 4.57958 17.0092 4.70631C17.0096 4.70656 17.01 4.70681 17.0104 4.70706C17.2268 4.83323 17.5045 4.76012 17.6307 4.54369C17.631 4.543 17.6315 4.54231 17.6318 4.54168L18.9123 2.32658C19.0382 2.10996 18.9647 1.83232 18.7482 1.7064Z" fill="#365467"/>
<path d="M8.00342 20.2942C7.78686 20.1683 7.50916 20.2418 7.38324 20.4584L6.1028 22.6735C5.97688 22.89 6.05036 23.1677 6.26692 23.2936C6.48349 23.4196 6.76119 23.3461 6.8871 23.1295L8.16755 20.9144C8.29346 20.6978 8.21998 20.4201 8.00342 20.2942Z" fill="#365467"/>
<path d="M4.70584 16.9967C4.57993 16.7801 4.30222 16.7066 4.08566 16.8325L1.87056 18.113C1.654 18.2389 1.58052 18.5166 1.70644 18.7332C1.83235 18.9497 2.11005 19.0232 2.32661 18.8973L4.54171 17.6168C4.75827 17.4909 4.83176 17.2132 4.70584 16.9967Z" fill="#365467"/>
</g>
<defs>
<clipPath id="clip0">
<rect width="25" height="25" fill="white"/>
</clipPath>
</defs>
</svg>
